<svg xmlns="http://www.w3.org/2000/svg" viewBox="0 0 781.68 243.67"><defs><style>.cls-1,.cls-2,.cls-4{fill:#fff;}.cls-2,.cls-4{font-size:41.2px;font-family:BookAntiqua, Book Antiqua;}.cls-3{fill:none;stroke:#fff;stroke-miterlimit:10;stroke-width:3px;}.cls-4{letter-spacing:0.01em;}</style></defs><title>logo-gyt-svg</title><g id="Layer_2" data-name="Layer 2"><g id="fondo-verde"><path class="cls-1" d="M135.51,182.48h-81L14,111.29,54.49,40.1h81L176,111.29ZM55,181.6h80l40-70.31L135,41H55L15,111.29Z"/><path class="cls-1" d="M132.92,186.79l-83.41-4.44L11.6,106.86,57.09,35.8l83.4,4.43,37.91,75.5ZM50.06,181.5l82.4,4.38,44.94-70.21L139.94,41.09l-82.4-4.38L12.6,106.91Z"/><path class="cls-1" d="M130,191.07,44.4,182l-35-79.79L60,31.51l85.61,9.13,35,79.78Zm-85-9.95,84.61,9,50-69.83L145,41.46l-84.61-9-50,69.83Z"/><path class="cls-1" d="M126.8,195.33,39.16,181.25l-31.8-84,55.84-70,87.64,14.08,31.8,84Zm-87-14.87,86.65,13.92,55.2-69.17L150.21,42.13,63.56,28.2,8.36,97.37Z"/><path class="cls-1" d="M123.26,199.54,33.8,180.25,5.54,92l61.2-69,89.46,19.3,28.26,88.24Zm-88.78-20L123,198.57l60.53-68.2L155.53,43.09,67.05,24,6.52,92.21Z"/><path class="cls-1" d="M119.4,203.67,28.34,178.92,3.94,86.54,70.6,18.91l91.06,24.75L186.06,136ZM29.05,178.2l90.09,24.49,66-66.91L161,44.38,70.86,19.89,4.91,86.8Z"/><path class="cls-1" d="M115.2,207.72,22.79,177.26,2.58,80.83l72.22-66,92.41,30.47,20.21,96.43ZM23.53,176.57,115,206.72l71.47-65.28L166.47,46,75,15.86,3.54,81.14Z"/><path class="cls-1" d="M110.67,211.66l-.24-.09L17.16,175.24,1.49,74.87,79.33,10.93l.24.09,93.27,36.32,15.67,100.37ZM17.94,174.6l92.57,36.05,77.06-63.31L172.06,48l-92.57-36L2.43,75.24Z"/><path class="cls-1" d="M105.79,215.46l-94.32-42.6L.68,68.69,84.21,7.12l94.32,42.6,10.79,104.17Zm-93.5-43.2,93.4,42.19,82.71-61L177.71,50.32,84.31,8.14,1.6,69.1Z"/><path class="cls-1" d="M100.57,219.11l-94.82-49,0-.25L.18,62.27,89.43,3.47l94.82,49,0,.25,5.55,107.57Zm-94-49.57,93.93,48.55,88.41-58.25L183.41,53,89.48,4.49,1.07,62.74Z"/><path class="cls-1" d="M95,222.58,0,166.94V55.65L95,0l95,55.65V166.94ZM.87,166.43,95,221.56l94.13-55.13V56.16L95,1,.87,56.16Z"/></g><g id="fondo-verde-letras"><text class="cls-2" transform="translate(221.09 84.57)">GEOMETRÍA Y TOPOLOGÍA</text><text></text><line class="cls-3" x1="221" y1="113.07" x2="771.11" y2="113.07"/><text class="cls-4" transform="translate(221.9 166.16)">UNIVERSIDAD DE SEVILLA</text></g></g></svg>